<svg width="187" height="60" viewBox="0 0 187 60" fill="none" xmlns="http://www.w3.org/2000/svg">
<g filter="url(#filter0_ii_9009_10255)">
<path d="M58 30C58 14.536 45.464 2 30 2C14.536 2 2 14.536 2 30C2 45.464 14.536 58 30 58C45.464 58 58 45.464 58 30Z" fill="#F8F8F8" fill-opacity="0.03"/>
<path d="M57.25 30C57.25 14.9502 45.0498 2.75 30 2.75C14.9502 2.75 2.75 14.9502 2.75 30C2.75 45.0498 14.9502 57.25 30 57.25C45.0498 57.25 57.25 45.0498 57.25 30Z" stroke="url(#paint0_linear_9009_10255)" stroke-opacity="0.15" stroke-width="1.5"/>
<g filter="url(#filter1_dd_9009_10255)">
<path fill-rule="evenodd" clip-rule="evenodd" d="M41.173 21.1508C42.2757 22.2535 42.2757 24.0412 41.173 25.1439L28.4671 37.8498C27.3645 38.9524 25.5767 38.9524 24.4741 37.8498L18.827 32.2027C17.7243 31.1 17.7243 29.3123 18.827 28.2096C19.9296 27.107 21.7174 27.107 22.8201 28.2096L26.4706 31.8601L37.1799 21.1508C38.2826 20.0481 40.0704 20.0481 41.173 21.1508Z" fill="url(#paint1_linear_9009_10255)"/>
</g>
</g>
<path d="M86.2514 41C85.3181 41 84.5248 40.8973 83.8714 40.692C83.2368 40.468 82.7608 40.048 82.4434 39.432C82.1261 38.7973 81.9674 37.892 81.9674 36.716V30.164H79.5874V27.112H81.9674V23.388H85.6074V27.112H89.1074V30.164H85.6074V36.268C85.6074 36.7347 85.6541 37.0893 85.7474 37.332C85.8408 37.556 86.0181 37.7053 86.2794 37.78C86.5408 37.8547 86.8954 37.892 87.3434 37.892H89.0234V41H86.2514ZM94.3384 41.336C93.2931 41.336 92.3877 41.1493 91.6224 40.776C90.8757 40.4027 90.3064 39.8987 89.9144 39.264C89.5224 38.6293 89.3264 37.9293 89.3264 37.164C89.3264 35.708 89.8491 34.588 90.8944 33.804C91.9397 33.0013 93.3117 32.6 95.0104 32.6C95.8131 32.6 96.5037 32.656 97.0824 32.768C97.6611 32.88 98.1371 33.0013 98.5104 33.132V32.46C98.5104 31.4893 98.2304 30.78 97.6704 30.332C97.1291 29.884 96.4197 29.66 95.5424 29.66C94.9264 29.66 94.3757 29.7907 93.8904 30.052C93.4051 30.2947 93.0971 30.7333 92.9664 31.368H89.5224C89.6344 30.3787 89.9704 29.548 90.5304 28.876C91.0904 28.1853 91.7997 27.6627 92.6584 27.308C93.5357 26.9533 94.4971 26.776 95.5424 26.776C97.6144 26.776 99.2291 27.2707 100.386 28.26C101.562 29.2493 102.15 30.6493 102.15 32.46V35.596C102.15 36.3053 102.188 36.828 102.262 37.164C102.356 37.5 102.496 37.7147 102.682 37.808C102.869 37.9013 103.121 37.948 103.438 37.948H103.55V41H102.766C101.777 41 100.956 40.8693 100.302 40.608C99.6491 40.3467 99.1731 39.8333 98.8744 39.068C98.4077 39.7213 97.7917 40.2627 97.0264 40.692C96.2611 41.1213 95.3651 41.336 94.3384 41.336ZM95.1504 38.564C95.7477 38.564 96.2517 38.4333 96.6624 38.172C97.0917 37.892 97.4464 37.5187 97.7264 37.052C98.0064 36.5667 98.2024 36.044 98.3144 35.484C97.9224 35.372 97.4651 35.2693 96.9424 35.176C96.4384 35.064 95.9251 35.008 95.4024 35.008C94.6744 35.008 94.0864 35.176 93.6384 35.512C93.2091 35.8293 92.9944 36.2773 92.9944 36.856C92.9944 37.36 93.1811 37.7707 93.5544 38.088C93.9464 38.4053 94.4784 38.564 95.1504 38.564ZM110.374 41.336C108.544 41.336 107.032 40.9067 105.838 40.048C104.662 39.1893 103.999 38.0413 103.85 36.604H107.574C107.704 37.1827 108.031 37.6493 108.554 38.004C109.095 38.3587 109.748 38.536 110.514 38.536C111.316 38.536 111.923 38.3867 112.334 38.088C112.763 37.7893 112.978 37.4253 112.978 36.996C112.978 36.6413 112.828 36.3613 112.53 36.156C112.231 35.9507 111.699 35.8013 110.934 35.708C110.654 35.6707 110.29 35.6147 109.842 35.54C109.394 35.4653 109.03 35.4 108.75 35.344C107.984 35.1947 107.284 34.952 106.65 34.616C106.015 34.28 105.502 33.832 105.11 33.272C104.736 32.712 104.55 32.012 104.55 31.172C104.55 29.94 105.007 28.904 105.922 28.064C106.855 27.2053 108.208 26.776 109.982 26.776C111.755 26.776 113.164 27.168 114.21 27.952C115.255 28.736 115.843 29.8373 115.974 31.256H112.446C112.39 30.696 112.119 30.276 111.634 29.996C111.167 29.716 110.626 29.576 110.01 29.576C109.282 29.576 108.722 29.716 108.33 29.996C107.938 30.2573 107.742 30.584 107.742 30.976C107.742 31.648 108.358 32.096 109.59 32.32C109.776 32.3387 110.01 32.376 110.29 32.432C110.588 32.4693 110.896 32.516 111.214 32.572C111.531 32.6093 111.783 32.6467 111.97 32.684C112.511 32.7587 113.043 32.88 113.566 33.048C114.088 33.216 114.555 33.4493 114.966 33.748C115.395 34.028 115.731 34.4107 115.974 34.896C116.235 35.3813 116.366 35.9787 116.366 36.688C116.366 37.6027 116.132 38.4147 115.666 39.124C115.199 39.8147 114.518 40.356 113.622 40.748C112.744 41.14 111.662 41.336 110.374 41.336ZM121.241 37.052L119.589 34.84L126.505 27.112H130.761L121.241 37.052ZM117.825 41V20.84H121.465V41H117.825ZM127.261 41L121.913 34.084L124.125 31.9L131.713 41H127.261Z" fill="#A3A3A6"/>
<path d="M133.066 41V27.112H136.706V41H133.066ZM133.15 24.816V21.288H136.678V24.816H133.15ZM144.74 41.336C143.433 41.336 142.257 41.0187 141.212 40.384C140.185 39.7493 139.373 38.8813 138.776 37.78C138.178 36.66 137.88 35.4093 137.88 34.028C137.88 32.628 138.178 31.3867 138.776 30.304C139.373 29.2027 140.185 28.344 141.212 27.728C142.257 27.0933 143.433 26.776 144.74 26.776C145.785 26.776 146.69 26.972 147.456 27.364C148.24 27.756 148.865 28.2973 149.332 28.988V20.84H152.972V41H149.332V39.012C148.902 39.628 148.314 40.1693 147.568 40.636C146.84 41.1027 145.897 41.336 144.74 41.336ZM145.524 38.172C146.289 38.172 146.961 37.9947 147.54 37.64C148.137 37.2853 148.594 36.8 148.912 36.184C149.248 35.5493 149.416 34.84 149.416 34.056C149.416 33.2533 149.248 32.544 148.912 31.928C148.594 31.312 148.137 30.8267 147.54 30.472C146.961 30.1173 146.289 29.94 145.524 29.94C144.777 29.94 144.105 30.1173 143.508 30.472C142.91 30.8267 142.444 31.312 142.108 31.928C141.772 32.5253 141.604 33.2253 141.604 34.028C141.604 34.8307 141.772 35.5493 142.108 36.184C142.444 36.8 142.91 37.2853 143.508 37.64C144.105 37.9947 144.777 38.172 145.524 38.172ZM161.639 41.336C160.239 41.336 158.979 41.028 157.859 40.412C156.739 39.796 155.853 38.9373 155.199 37.836C154.546 36.7347 154.219 35.4747 154.219 34.056C154.219 32.6187 154.546 31.3587 155.199 30.276C155.853 29.1747 156.739 28.316 157.859 27.7C158.998 27.084 160.258 26.776 161.639 26.776C163.039 26.776 164.299 27.084 165.419 27.7C166.539 28.316 167.426 29.1747 168.079 30.276C168.733 31.3587 169.059 32.6187 169.059 34.056C169.059 35.4747 168.733 36.7347 168.079 37.836C167.426 38.9373 166.539 39.796 165.419 40.412C164.299 41.028 163.039 41.336 161.639 41.336ZM161.639 38.2C162.311 38.2 162.927 38.0507 163.487 37.752C164.047 37.4347 164.486 36.968 164.803 36.352C165.139 35.736 165.307 34.9707 165.307 34.056C165.307 33.1413 165.139 32.376 164.803 31.76C164.467 31.144 164.019 30.6867 163.459 30.388C162.918 30.0707 162.321 29.912 161.667 29.912C160.995 29.912 160.379 30.0707 159.819 30.388C159.259 30.7053 158.811 31.172 158.475 31.788C158.139 32.3853 157.971 33.1413 157.971 34.056C157.971 34.9707 158.13 35.736 158.447 36.352C158.783 36.968 159.231 37.4347 159.791 37.752C160.351 38.0507 160.967 38.2 161.639 38.2ZM169.688 41V36.744H174.224V41H169.688Z" fill="#C9C9CB"/>
<defs>
<filter id="filter0_ii_9009_10255" x="2" y="2" width="58" height="60" filterUnits="userSpaceOnUse" color-interpolation-filters="sRGB">
<feFlood flood-opacity="0" result="BackgroundImageFix"/>
<feBlend mode="normal" in="SourceGraphic" in2="BackgroundImageFix" result="shape"/>
<feColorMatrix in="SourceAlpha" type="matrix" values="0 0 0 0 0 0 0 0 0 0 0 0 0 0 0 0 0 0 127 0" result="hardAlpha"/>
<feOffset/>
<feGaussianBlur stdDeviation="2"/>
<feComposite in2="hardAlpha" operator="arithmetic" k2="-1" k3="1"/>
<feColorMatrix type="matrix" values="0 0 0 0 0.0705882 0 0 0 0 0.0705882 0 0 0 0 0.0705882 0 0 0 0.6 0"/>
<feBlend mode="normal" in2="shape" result="effect1_innerShadow_9009_10255"/>
<feColorMatrix in="SourceAlpha" type="matrix" values="0 0 0 0 0 0 0 0 0 0 0 0 0 0 0 0 0 0 127 0" result="hardAlpha"/>
<feOffset dx="2" dy="4"/>
<feGaussianBlur stdDeviation="8"/>
<feComposite in2="hardAlpha" operator="arithmetic" k2="-1" k3="1"/>
<feColorMatrix type="matrix" values="0 0 0 0 0.972549 0 0 0 0 0.972549 0 0 0 0 0.972549 0 0 0 0.06 0"/>
<feBlend mode="normal" in2="effect1_innerShadow_9009_10255" result="effect2_innerShadow_9009_10255"/>
</filter>
<filter id="filter1_dd_9009_10255" x="5.29413" y="18.912" width="40.9412" height="35.2942" filterUnits="userSpaceOnUse" color-interpolation-filters="sRGB">
<feFlood flood-opacity="0" result="BackgroundImageFix"/>
<feColorMatrix in="SourceAlpha" type="matrix" values="0 0 0 0 0 0 0 0 0 0 0 0 0 0 0 0 0 0 127 0" result="hardAlpha"/>
<feOffset dx="-4.23529" dy="7.05882"/>
<feGaussianBlur stdDeviation="4.23529"/>
<feColorMatrix type="matrix" values="0 0 0 0 0 0 0 0 0 0 0 0 0 0 0 0 0 0 0.2 0"/>
<feBlend mode="normal" in2="BackgroundImageFix" result="effect1_dropShadow_9009_10255"/>
<feColorMatrix in="SourceAlpha" type="matrix" values="0 0 0 0 0 0 0 0 0 0 0 0 0 0 0 0 0 0 127 0" result="hardAlpha"/>
<feOffset dx="-1.41176" dy="2.82353"/>
<feGaussianBlur stdDeviation="2.11765"/>
<feComposite in2="hardAlpha" operator="out"/>
<feColorMatrix type="matrix" values="0 0 0 0 0 0 0 0 0 0 0 0 0 0 0 0 0 0 0.1 0"/>
<feBlend mode="normal" in2="effect1_dropShadow_9009_10255" result="effect2_dropShadow_9009_10255"/>
<feBlend mode="normal" in="SourceGraphic" in2="effect2_dropShadow_9009_10255" result="shape"/>
</filter>
<linearGradient id="paint0_linear_9009_10255" x1="30" y1="2" x2="54.3611" y2="63.4948" gradientUnits="userSpaceOnUse">
<stop stop-color="white" stop-opacity="0.4"/>
<stop offset="0.4" stop-color="white" stop-opacity="0.01"/>
<stop offset="0.6" stop-color="white" stop-opacity="0.01"/>
<stop offset="1" stop-color="white" stop-opacity="0.1"/>
</linearGradient>
<linearGradient id="paint1_linear_9009_10255" x1="30" y1="20.3238" x2="30" y2="38.6767" gradientUnits="userSpaceOnUse">
<stop stop-color="#F8F8F8" stop-opacity="0.9"/>
<stop offset="1" stop-color="#F8F8F8" stop-opacity="0.3"/>
</linearGradient>
</defs>
</svg>
