<svg width="187" height="60" viewBox="0 0 187 60" fill="none" xmlns="http://www.w3.org/2000/svg">
<g filter="url(#filter0_ii_9009_10255)">
<path d="M58 30C58 14.536 45.464 2 30 2C14.536 2 2 14.536 2 30C2 45.464 14.536 58 30 58C45.464 58 58 45.464 58 30Z" fill="#F8F8F8" fill-opacity="0.03"/>
<path d="M57.25 30C57.25 14.9502 45.0498 2.75 30 2.75C14.9502 2.75 2.75 14.9502 2.75 30C2.75 45.0498 14.9502 57.25 30 57.25C45.0498 57.25 57.25 45.0498 57.25 30Z" stroke="url(#paint0_linear_9009_10255)" stroke-opacity="0.15" stroke-width="1.5"/>
<g filter="url(#filter1_dd_9009_10255)">
<path fill-rule="evenodd" clip-rule="evenodd" d="M41.173 21.1508C42.2757 22.2535 42.2757 24.0412 41.173 25.1439L28.4671 37.8498C27.3645 38.9524 25.5767 38.9524 24.4741 37.8498L18.827 32.2027C17.7243 31.1 17.7243 29.3123 18.827 28.2096C19.9296 27.107 21.7174 27.107 22.8201 28.2096L26.4706 31.8601L37.1799 21.1508C38.2826 20.0481 40.0704 20.0481 41.173 21.1508Z" fill="url(#paint1_linear_9009_10255)"/>
</g>
</g>
<path d="M86.2514 41C85.3181 41 84.5248 40.8973 83.8714 40.692C83.2368 40.468 82.7608 40.048 82.4434 39.432C82.1261 38.7973 81.9674 37.892 81.9674 36.716V30.164H79.5874V27.112H81.9674V23.388H85.6074V27.112H89.1074V30.164H85.6074V36.268C85.6074 36.7347 85.6541 37.0893 85.7474 37.332C85.8408 37.556 86.0181 37.7053 86.2794 37.78C86.5408 37.8547 86.8954 37.892 87.3434 37.892H89.0234V41H86.2514ZM94.3384 41.336C93.2931 41.336 92.3877 41.1493 91.6224 40.776C90.8757 40.4027 90.3064 39.8987 89.9144 39.264C89.5224 38.6293 89.3264 37.9293 89.3264 37.164C89.3264 35.708 89.8491 34.588 90.8944 33.804C91.9397 33.0013 93.3117 32.6 95.0104 32.6C95.8131 32.6 96.5037 32.656 97.0824 32.768C97.6611 32.88 98.1371 33.0013 98.5104 33.132V32.46C98.5104 31.4893 98.2304 30.78 97.6704 30.332C97.1291 29.884 96.4197 29.66 95.5424 29.66C94.9264 29.66 94.3757 29.7907 93.8904 30.052C93.4051 30.2947 93.0971 30.7333 92.9664 31.368H89.5224C89.6344 30.3787 89.9704 29.548 90.5304 28.876C91.0904 28.1853 91.7997 27.6627 92.6584 27.308C93.5357 26.9533 94.4971 26.776 95.5424 26.776C97.6144 26.776 99.2291 27.2707 100.386 28.26C101.562 29.2493 102.15 30.6493 102.15 32.46V35.596C102.15 36.3053 102.188 36.828 102.262 37.164C102.356 37.5 102.496 37.7147 102.682 37.808C102.869 37.9013 103.121 37.948 103.438 37.948H103.55V41H102.766C101.777 41 100.956 40.8693 100.302 40.608C99.6491 40.3467 99.1731 39.8333 98.8744 39.068C98.4077 39.7213 97.7917 40.2627 97.0264 40.692C96.2611 41.1213 95.3651 41.336 94.3384 41.336ZM95.1504 38.564C95.7477 38.564 96.2517 38.4333 96.6624 38.172C97.0917 37.892 97.4464 37.5187 97.7264 37.052C98.0064 36.5667 98.2024 36.044 98.3144 35.484C97.9224 35.372 97.4651 35.2693 96.9424 35.176C96.4384 35.064 95.9251 35.008 95.4024 35.008C94.6744 35.008 94.0864 35.176 93.6384 35.512C93.2091 35.8293 92.9944 36.2773 92.9944 36.856C92.9944 37.36 93.1811 37.7707 93.5544 38.088C93.9464 38.4053 94.4784 38.564 95.1504 38.564ZM110.374 41.336C108.544 41.336 107.032 40.9067 105.838 40.048C104.662 39.1893 103.999 38.0413 103.85 36.604H107.574C107.704 37.1827 108.031 37.6493 108.554 38.004C109.095 38.3587 109.748 38.536 110.514 38.536C111.316 38.536 111.923 38.3867 112.334 38.088C112.763 37.7893 112.978 37.4253 112.978 36.996C112.978 36.6413 112.828 36.3613 112.53 36.156C112.231 35.9507 111.699 35.8013 110.934 35.708C110.654 35.6707 110.29 35.6147 109.842 35.54C109.394 35.4653 109.03 35.4 108.75 35.344C107.984 35.1947 107.284 34.952 106.65 34.616C106.015 34.28 105.502 33.832 105.11 33.272C104.736 32.712 104.55 32.012 104.55 31.172C104.55 29.94 105.007 28.904 105.922 28.064C106.855 27.2053 108.208 26.776 109.982 26.776C111.755 26.776 113.164 27.168 114.21 27.952C115.255 28.736 115.843 29.8373 115.974 31.256H112.446C112.39 30.696 112.119 30.276 111.634 29.996C111.167 29.716 110.626 29.576 110.01 29.576C109.282 29.576 108.722 29.716 108.33 29.996C107.938 30.2573 107.742 30.584 107.742 30.976C107.742 31.648 108.358 32.096 109.59 32.32C109.776 32.3387 110.01 32.376 110.29 32.432C110.588 32.4693 110.896 32.516 111.214 32.572C111.531 32.6093 111.783 32.6467 111.97 32.684C112.511 32.7587 113.043 32.88 113.566 33.048C114.088 33.216 114.555 33.4493 114.966 33.748C115.395 34.028 115.731 34.4107 115.974 34.896C116.235 35.3813 116.366 35.9787 116.366 36.688C116.366 37.6027 116.132 38.4147 115.666 39.124C115.199 39.8147 114.518 40.356 113.622 40.748C112.744 41.14 111.662 41.336 110.374 41.336ZM121.241 37.052L119.589 34.84L126.505 27.112H130.761L121.241 37.052ZM117.825 41V20.84H121.465V41H117.825ZM127.261 41L121.913 34.084L124.125 31.9L131.713 41H127.261Z" fill="#A3A3A6"/>
<path d="M133.379 41V20.84H137.019V41H133.379ZM138.753 41V27.112H142.393V41H138.753ZM138.837 24.816V21.288H142.365V24.816H138.837ZM150.427 41.336C149.12 41.336 147.944 41.0187 146.899 40.384C145.872 39.7493 145.06 38.8813 144.463 37.78C143.865 36.66 143.567 35.4093 143.567 34.028C143.567 32.628 143.865 31.3867 144.463 30.304C145.06 29.2027 145.872 28.344 146.899 27.728C147.944 27.0933 149.12 26.776 150.427 26.776C151.472 26.776 152.377 26.972 153.143 27.364C153.927 27.756 154.552 28.2973 155.019 28.988V20.84H158.659V41H155.019V39.012C154.589 39.628 154.001 40.1693 153.255 40.636C152.527 41.1027 151.584 41.336 150.427 41.336ZM151.211 38.172C151.976 38.172 152.648 37.9947 153.227 37.64C153.824 37.2853 154.281 36.8 154.599 36.184C154.935 35.5493 155.103 34.84 155.103 34.056C155.103 33.2533 154.935 32.544 154.599 31.928C154.281 31.312 153.824 30.8267 153.227 30.472C152.648 30.1173 151.976 29.94 151.211 29.94C150.464 29.94 149.792 30.1173 149.195 30.472C148.597 30.8267 148.131 31.312 147.795 31.928C147.459 32.5253 147.291 33.2253 147.291 34.028C147.291 34.8307 147.459 35.5493 147.795 36.184C148.131 36.8 148.597 37.2853 149.195 37.64C149.792 37.9947 150.464 38.172 151.211 38.172ZM167.326 41.336C165.926 41.336 164.666 41.028 163.546 40.412C162.426 39.796 161.54 38.9373 160.886 37.836C160.233 36.7347 159.906 35.4747 159.906 34.056C159.906 32.6187 160.233 31.3587 160.886 30.276C161.54 29.1747 162.426 28.316 163.546 27.7C164.685 27.084 165.945 26.776 167.326 26.776C168.726 26.776 169.986 27.084 171.106 27.7C172.226 28.316 173.113 29.1747 173.766 30.276C174.42 31.3587 174.746 32.6187 174.746 34.056C174.746 35.4747 174.42 36.7347 173.766 37.836C173.113 38.9373 172.226 39.796 171.106 40.412C169.986 41.028 168.726 41.336 167.326 41.336ZM167.326 38.2C167.998 38.2 168.614 38.0507 169.174 37.752C169.734 37.4347 170.173 36.968 170.49 36.352C170.826 35.736 170.994 34.9707 170.994 34.056C170.994 33.1413 170.826 32.376 170.49 31.76C170.154 31.144 169.706 30.6867 169.146 30.388C168.605 30.0707 168.008 29.912 167.354 29.912C166.682 29.912 166.066 30.0707 165.506 30.388C164.946 30.7053 164.498 31.172 164.162 31.788C163.826 32.3853 163.658 33.1413 163.658 34.056C163.658 34.9707 163.817 35.736 164.134 36.352C164.47 36.968 164.918 37.4347 165.478 37.752C166.038 38.0507 166.654 38.2 167.326 38.2ZM175.375 41V36.744H179.911V41H175.375Z" fill="#C9C9CB"/>
<defs>
<filter id="filter0_ii_9009_10255" x="2" y="2" width="58" height="60" filterUnits="userSpaceOnUse" color-interpolation-filters="sRGB">
<feFlood flood-opacity="0" result="BackgroundImageFix"/>
<feBlend mode="normal" in="SourceGraphic" in2="BackgroundImageFix" result="shape"/>
<feColorMatrix in="SourceAlpha" type="matrix" values="0 0 0 0 0 0 0 0 0 0 0 0 0 0 0 0 0 0 127 0" result="hardAlpha"/>
<feOffset/>
<feGaussianBlur stdDeviation="2"/>
<feComposite in2="hardAlpha" operator="arithmetic" k2="-1" k3="1"/>
<feColorMatrix type="matrix" values="0 0 0 0 0.0705882 0 0 0 0 0.0705882 0 0 0 0 0.0705882 0 0 0 0.6 0"/>
<feBlend mode="normal" in2="shape" result="effect1_innerShadow_9009_10255"/>
<feColorMatrix in="SourceAlpha" type="matrix" values="0 0 0 0 0 0 0 0 0 0 0 0 0 0 0 0 0 0 127 0" result="hardAlpha"/>
<feOffset dx="2" dy="4"/>
<feGaussianBlur stdDeviation="8"/>
<feComposite in2="hardAlpha" operator="arithmetic" k2="-1" k3="1"/>
<feColorMatrix type="matrix" values="0 0 0 0 0.972549 0 0 0 0 0.972549 0 0 0 0 0.972549 0 0 0 0.06 0"/>
<feBlend mode="normal" in2="effect1_innerShadow_9009_10255" result="effect2_innerShadow_9009_10255"/>
</filter>
<filter id="filter1_dd_9009_10255" x="5.29413" y="18.912" width="40.9412" height="35.2942" filterUnits="userSpaceOnUse" color-interpolation-filters="sRGB">
<feFlood flood-opacity="0" result="BackgroundImageFix"/>
<feColorMatrix in="SourceAlpha" type="matrix" values="0 0 0 0 0 0 0 0 0 0 0 0 0 0 0 0 0 0 127 0" result="hardAlpha"/>
<feOffset dx="-4.23529" dy="7.05882"/>
<feGaussianBlur stdDeviation="4.23529"/>
<feColorMatrix type="matrix" values="0 0 0 0 0 0 0 0 0 0 0 0 0 0 0 0 0 0 0.2 0"/>
<feBlend mode="normal" in2="BackgroundImageFix" result="effect1_dropShadow_9009_10255"/>
<feColorMatrix in="SourceAlpha" type="matrix" values="0 0 0 0 0 0 0 0 0 0 0 0 0 0 0 0 0 0 127 0" result="hardAlpha"/>
<feOffset dx="-1.41176" dy="2.82353"/>
<feGaussianBlur stdDeviation="2.11765"/>
<feComposite in2="hardAlpha" operator="out"/>
<feColorMatrix type="matrix" values="0 0 0 0 0 0 0 0 0 0 0 0 0 0 0 0 0 0 0.1 0"/>
<feBlend mode="normal" in2="effect1_dropShadow_9009_10255" result="effect2_dropShadow_9009_10255"/>
<feBlend mode="normal" in="SourceGraphic" in2="effect2_dropShadow_9009_10255" result="shape"/>
</filter>
<linearGradient id="paint0_linear_9009_10255" x1="30" y1="2" x2="54.3611" y2="63.4948" gradientUnits="userSpaceOnUse">
<stop stop-color="white" stop-opacity="0.4"/>
<stop offset="0.4" stop-color="white" stop-opacity="0.01"/>
<stop offset="0.6" stop-color="white" stop-opacity="0.01"/>
<stop offset="1" stop-color="white" stop-opacity="0.1"/>
</linearGradient>
<linearGradient id="paint1_linear_9009_10255" x1="30" y1="20.3238" x2="30" y2="38.6767" gradientUnits="userSpaceOnUse">
<stop stop-color="#F8F8F8" stop-opacity="0.9"/>
<stop offset="1" stop-color="#F8F8F8" stop-opacity="0.3"/>
</linearGradient>
</defs>
</svg>
